<mxfile host="app.diagrams.net" modified="2024-01-11T08:45:41.707Z" agent="Mozilla/5.0 (Windows NT 10.0; Win64; x64) AppleWebKit/537.36 (KHTML, like Gecko) Chrome/119.0.0.0 Safari/537.36" etag="OpbgT7OO9aYRoSkPF0HS" version="22.1.17" type="github">
  <diagram name="第 1 页" id="JK6JBXOP9RQf0usXEJeH">
    <mxGraphModel dx="1050" dy="557" grid="1" gridSize="10" guides="1" tooltips="1" connect="1" arrows="1" fold="1" page="1" pageScale="1" pageWidth="827" pageHeight="1169" math="0" shadow="0">
      <root>
        <mxCell id="0" />
        <mxCell id="1" parent="0" />
        <mxCell id="kIAk1iYzoB-Qb-6D6KU0-1" value="" style="group" vertex="1" connectable="0" parent="1">
          <mxGeometry x="80" y="150" width="120" height="40" as="geometry" />
        </mxCell>
        <mxCell id="kIAk1iYzoB-Qb-6D6KU0-2" value="肝" style="ellipse;whiteSpace=wrap;html=1;fontSize=13;" vertex="1" parent="kIAk1iYzoB-Qb-6D6KU0-1">
          <mxGeometry width="76" height="40" as="geometry" />
        </mxCell>
        <mxCell id="kIAk1iYzoB-Qb-6D6KU0-3" value="" style="endArrow=classic;html=1;rounded=0;exitX=1;exitY=0.5;exitDx=0;exitDy=0;" edge="1" parent="kIAk1iYzoB-Qb-6D6KU0-1" source="kIAk1iYzoB-Qb-6D6KU0-2" target="kIAk1iYzoB-Qb-6D6KU0-4">
          <mxGeometry width="50" height="50" relative="1" as="geometry">
            <mxPoint x="127" y="21" as="sourcePoint" />
            <mxPoint x="272" y="20" as="targetPoint" />
          </mxGeometry>
        </mxCell>
        <mxCell id="kIAk1iYzoB-Qb-6D6KU0-19" style="edgeStyle=orthogonalEdgeStyle;rounded=0;orthogonalLoop=1;jettySize=auto;html=1;exitX=1;exitY=0.5;exitDx=0;exitDy=0;" edge="1" parent="kIAk1iYzoB-Qb-6D6KU0-1" source="kIAk1iYzoB-Qb-6D6KU0-4">
          <mxGeometry relative="1" as="geometry">
            <mxPoint x="260" y="20" as="targetPoint" />
          </mxGeometry>
        </mxCell>
        <mxCell id="kIAk1iYzoB-Qb-6D6KU0-20" value="营养" style="edgeLabel;html=1;align=center;verticalAlign=middle;resizable=0;points=[];fontSize=15;" vertex="1" connectable="0" parent="kIAk1iYzoB-Qb-6D6KU0-19">
          <mxGeometry x="-0.1061" y="-3" relative="1" as="geometry">
            <mxPoint as="offset" />
          </mxGeometry>
        </mxCell>
        <mxCell id="kIAk1iYzoB-Qb-6D6KU0-4" value="储存血液" style="text;html=1;strokeColor=#d79b00;fillColor=#ffe6cc;align=center;verticalAlign=middle;whiteSpace=wrap;rounded=0;" vertex="1" parent="kIAk1iYzoB-Qb-6D6KU0-1">
          <mxGeometry x="60" y="5" width="60" height="30" as="geometry" />
        </mxCell>
        <mxCell id="kIAk1iYzoB-Qb-6D6KU0-18" value="" style="group" vertex="1" connectable="0" parent="1">
          <mxGeometry x="340" y="75" width="120" height="190" as="geometry" />
        </mxCell>
        <mxCell id="kIAk1iYzoB-Qb-6D6KU0-17" value="" style="rounded=0;whiteSpace=wrap;html=1;" vertex="1" parent="kIAk1iYzoB-Qb-6D6KU0-18">
          <mxGeometry width="120" height="190" as="geometry" />
        </mxCell>
        <mxCell id="kIAk1iYzoB-Qb-6D6KU0-14" value="脏腑" style="ellipse;whiteSpace=wrap;html=1;fontSize=14;" vertex="1" parent="kIAk1iYzoB-Qb-6D6KU0-18">
          <mxGeometry x="20" y="10" width="80" height="50" as="geometry" />
        </mxCell>
        <mxCell id="kIAk1iYzoB-Qb-6D6KU0-15" value="形体" style="ellipse;whiteSpace=wrap;html=1;fontSize=14;" vertex="1" parent="kIAk1iYzoB-Qb-6D6KU0-18">
          <mxGeometry x="20" y="70" width="80" height="50" as="geometry" />
        </mxCell>
        <mxCell id="kIAk1iYzoB-Qb-6D6KU0-16" value="官窍" style="ellipse;whiteSpace=wrap;html=1;fontSize=14;" vertex="1" parent="kIAk1iYzoB-Qb-6D6KU0-18">
          <mxGeometry x="20" y="130" width="80" height="50" as="geometry" />
        </mxCell>
        <mxCell id="kIAk1iYzoB-Qb-6D6KU0-45" value="" style="group" vertex="1" connectable="0" parent="1">
          <mxGeometry x="210" y="310" width="260" height="131" as="geometry" />
        </mxCell>
        <mxCell id="kIAk1iYzoB-Qb-6D6KU0-24" value="肝血不足" style="swimlane;fontStyle=0;childLayout=stackLayout;horizontal=1;startSize=30;horizontalStack=0;resizeParent=1;resizeParentMax=0;resizeLast=0;collapsible=1;marginBottom=0;whiteSpace=wrap;html=1;" vertex="1" parent="kIAk1iYzoB-Qb-6D6KU0-45">
          <mxGeometry x="10" width="250" height="131" as="geometry">
            <mxRectangle x="10" width="90" height="30" as="alternateBounds" />
          </mxGeometry>
        </mxCell>
        <mxCell id="kIAk1iYzoB-Qb-6D6KU0-41" value="" style="group;fontSize=13;align=left;" vertex="1" connectable="0" parent="kIAk1iYzoB-Qb-6D6KU0-24">
          <mxGeometry y="30" width="250" height="101" as="geometry" />
        </mxCell>
        <mxCell id="kIAk1iYzoB-Qb-6D6KU0-65" value="" style="group" vertex="1" connectable="0" parent="kIAk1iYzoB-Qb-6D6KU0-41">
          <mxGeometry x="6" y="3" width="244" height="40" as="geometry" />
        </mxCell>
        <mxCell id="kIAk1iYzoB-Qb-6D6KU0-42" value="不能濡养头目" style="rounded=1;whiteSpace=wrap;html=1;fontSize=13;align=left;" vertex="1" parent="kIAk1iYzoB-Qb-6D6KU0-65">
          <mxGeometry width="114.01869158878503" height="40" as="geometry" />
        </mxCell>
        <mxCell id="kIAk1iYzoB-Qb-6D6KU0-43" value="眼目干涩、头晕或夜盲" style="text;html=1;strokeColor=#d79b00;fillColor=#ffe6cc;align=center;verticalAlign=middle;whiteSpace=wrap;rounded=0;fontSize=13;" vertex="1" parent="kIAk1iYzoB-Qb-6D6KU0-65">
          <mxGeometry x="107.17757009345793" y="5.365853658536585" width="136.82242990654206" height="29.26829268292683" as="geometry" />
        </mxCell>
        <mxCell id="kIAk1iYzoB-Qb-6D6KU0-56" value="" style="group;fontSize=13;align=left;" vertex="1" connectable="0" parent="kIAk1iYzoB-Qb-6D6KU0-41">
          <mxGeometry y="50" width="250" height="41" as="geometry" />
        </mxCell>
        <mxCell id="kIAk1iYzoB-Qb-6D6KU0-57" value="不能濡养筋经" style="rounded=1;whiteSpace=wrap;html=1;fontSize=13;align=left;" vertex="1" parent="kIAk1iYzoB-Qb-6D6KU0-56">
          <mxGeometry x="6.818181818181818" width="113.63636363636364" height="41" as="geometry" />
        </mxCell>
        <mxCell id="kIAk1iYzoB-Qb-6D6KU0-58" value="筋脉拘急、肢体麻木" style="text;html=1;strokeColor=#d79b00;fillColor=#ffe6cc;align=center;verticalAlign=middle;whiteSpace=wrap;rounded=0;fontSize=13;" vertex="1" parent="kIAk1iYzoB-Qb-6D6KU0-56">
          <mxGeometry x="113.63636363636364" y="5.5" width="136.36363636363637" height="30" as="geometry" />
        </mxCell>
        <mxCell id="kIAk1iYzoB-Qb-6D6KU0-44" value="" style="verticalLabelPosition=bottom;verticalAlign=top;html=1;shape=mxgraph.basic.x;fontColor=#ffffff;fillColor=#d80073;strokeColor=#A50040;" vertex="1" parent="kIAk1iYzoB-Qb-6D6KU0-45">
          <mxGeometry width="10" height="10" as="geometry" />
        </mxCell>
        <mxCell id="kIAk1iYzoB-Qb-6D6KU0-66" style="edgeStyle=orthogonalEdgeStyle;rounded=0;orthogonalLoop=1;jettySize=auto;html=1;exitX=0.5;exitY=1;exitDx=0;exitDy=0;entryX=0;entryY=0.5;entryDx=0;entryDy=0;" edge="1" parent="1" source="kIAk1iYzoB-Qb-6D6KU0-2" target="kIAk1iYzoB-Qb-6D6KU0-24">
          <mxGeometry relative="1" as="geometry" />
        </mxCell>
        <mxCell id="kIAk1iYzoB-Qb-6D6KU0-67" value="四种肝风" style="swimlane;fontStyle=0;childLayout=stackLayout;horizontal=1;startSize=30;horizontalStack=0;resizeParent=1;resizeParentMax=0;resizeLast=0;collapsible=1;marginBottom=0;whiteSpace=wrap;html=1;fontSize=14;" vertex="1" parent="1">
          <mxGeometry x="530" y="75" width="140" height="150" as="geometry">
            <mxRectangle x="560" y="70" width="90" height="30" as="alternateBounds" />
          </mxGeometry>
        </mxCell>
        <mxCell id="kIAk1iYzoB-Qb-6D6KU0-68" value="肝阳化风" style="text;strokeColor=none;fillColor=none;align=left;verticalAlign=middle;spacingLeft=4;spacingRight=4;overflow=hidden;points=[[0,0.5],[1,0.5]];portConstraint=eastwest;rotatable=0;whiteSpace=wrap;html=1;fontSize=14;" vertex="1" parent="kIAk1iYzoB-Qb-6D6KU0-67">
          <mxGeometry y="30" width="140" height="30" as="geometry" />
        </mxCell>
        <mxCell id="kIAk1iYzoB-Qb-6D6KU0-69" value="肝经有热，热极生风" style="text;strokeColor=none;fillColor=none;align=left;verticalAlign=middle;spacingLeft=4;spacingRight=4;overflow=hidden;points=[[0,0.5],[1,0.5]];portConstraint=eastwest;rotatable=0;whiteSpace=wrap;html=1;fontSize=14;" vertex="1" parent="kIAk1iYzoB-Qb-6D6KU0-67">
          <mxGeometry y="60" width="140" height="30" as="geometry" />
        </mxCell>
        <mxCell id="kIAk1iYzoB-Qb-6D6KU0-72" value="阴虚动风" style="text;strokeColor=none;fillColor=none;align=left;verticalAlign=middle;spacingLeft=4;spacingRight=4;overflow=hidden;points=[[0,0.5],[1,0.5]];portConstraint=eastwest;rotatable=0;whiteSpace=wrap;html=1;fontSize=14;" vertex="1" parent="kIAk1iYzoB-Qb-6D6KU0-67">
          <mxGeometry y="90" width="140" height="30" as="geometry" />
        </mxCell>
        <mxCell id="kIAk1iYzoB-Qb-6D6KU0-70" value="血虚生风" style="text;strokeColor=none;fillColor=none;align=left;verticalAlign=middle;spacingLeft=4;spacingRight=4;overflow=hidden;points=[[0,0.5],[1,0.5]];portConstraint=eastwest;rotatable=0;whiteSpace=wrap;html=1;fontSize=14;" vertex="1" parent="kIAk1iYzoB-Qb-6D6KU0-67">
          <mxGeometry y="120" width="140" height="30" as="geometry" />
        </mxCell>
        <mxCell id="kIAk1iYzoB-Qb-6D6KU0-73" value="肝藏血-储存血液" style="text;html=1;strokeColor=none;fillColor=none;align=center;verticalAlign=middle;whiteSpace=wrap;rounded=0;fontSize=14;fontColor=#000099;fontStyle=1" vertex="1" parent="1">
          <mxGeometry x="80" y="75" width="120" height="25" as="geometry" />
        </mxCell>
      </root>
    </mxGraphModel>
  </diagram>
</mxfile>
